<svg width="1600" height="900" viewBox="0 0 1600 900" fill="none" xmlns="http://www.w3.org/2000/svg">
  <rect width="1600" height="900" fill="#F7F5EF"/>
  <circle cx="1320" cy="120" r="220" fill="#D8ECEB"/>
  <circle cx="250" cy="760" r="260" fill="#E9EEE6"/>
  <rect x="88" y="82" width="1424" height="736" rx="40" fill="white" stroke="#D9DDD5" stroke-width="4"/>

  <rect x="140" y="134" width="88" height="88" rx="24" fill="#2E6E71"/>
  <path d="M170 198V160H193.5C212 160 223 167.5 223 179.5C223 191.5 212 198 193.5 198H170ZM184.5 187.5H192.5C202.5 187.5 208.5 184.5 208.5 179.5C208.5 174.5 202.5 170.5 192.5 170.5H184.5V187.5Z" fill="white"/>

  <text x="256" y="175" fill="#15303B" font-family="Avenir Next, Segoe UI, sans-serif" font-size="54" font-weight="700">Pulse</text>
  <text x="256" y="222" fill="#546773" font-family="Avenir Next, Segoe UI, sans-serif" font-size="28">Private issue matching for safe local civic action</text>

  <text x="140" y="332" fill="#15303B" font-family="Georgia, serif" font-size="74" font-weight="700">
    When a problem keeps happening,
  </text>
  <text x="140" y="408" fill="#15303B" font-family="Georgia, serif" font-size="74" font-weight="700">
    people should know they are not alone.
  </text>

  <text x="140" y="496" fill="#546773" font-family="Avenir Next, Segoe UI, sans-serif" font-size="30">
    Private reports. Explainable pattern detection. Safe action rooms.
  </text>

  <rect x="140" y="560" width="250" height="66" rx="33" fill="#2E6E71"/>
  <text x="193" y="602" fill="white" font-family="Avenir Next, Segoe UI, sans-serif" font-size="28" font-weight="700">Report an issue</text>

  <rect x="410" y="560" width="290" height="66" rx="33" fill="#EEF2EE" stroke="#D9DDD5" stroke-width="2"/>
  <text x="472" y="602" fill="#15303B" font-family="Avenir Next, Segoe UI, sans-serif" font-size="28" font-weight="700">Explore local patterns</text>

  <rect x="970" y="220" width="420" height="420" rx="36" fill="#FCFCF9" stroke="#D9DDD5" stroke-width="3"/>
  <text x="1012" y="286" fill="#2E6E71" font-family="Avenir Next, Segoe UI, sans-serif" font-size="24" font-weight="700">Pattern Check</text>
  <text x="1012" y="336" fill="#15303B" font-family="Georgia, serif" font-size="42" font-weight="700">You are not alone</text>
  <text x="1012" y="382" fill="#546773" font-family="Avenir Next, Segoe UI, sans-serif" font-size="24">7 similar housing reports nearby</text>

  <rect x="1012" y="430" width="336" height="70" rx="22" fill="#EAF6F0"/>
  <text x="1040" y="473" fill="#1F575A" font-family="Avenir Next, Segoe UI, sans-serif" font-size="22" font-weight="700">Likely match</text>
  <text x="1188" y="473" fill="#546773" font-family="Avenir Next, Segoe UI, sans-serif" font-size="22">1.8 miles · 30 days</text>

  <rect x="1012" y="520" width="336" height="70" rx="22" fill="#FFF8EE"/>
  <text x="1040" y="563" fill="#7D5A12" font-family="Avenir Next, Segoe UI, sans-serif" font-size="22" font-weight="700">Safe action room ready</text>

  <circle cx="1285" cy="735" r="34" fill="#D8ECEB"/>
  <circle cx="1352" cy="735" r="34" fill="#EAF6F0"/>
  <circle cx="1419" cy="735" r="34" fill="#FFF3DC"/>
</svg>
