<svg width="640" height="400" viewBox="0 0 640 400" fill="none" xmlns="http://www.w3.org/2000/svg">
  <rect width="640" height="400" rx="24" fill="#EEF2EE"/>
  <rect x="88" y="72" width="464" height="256" rx="18" fill="#FFFFFF" stroke="#D9DDD5" stroke-width="8"/>
  <path d="M176 120H464" stroke="#2E6E71" stroke-width="14" stroke-linecap="round"/>
  <path d="M176 168H432" stroke="#8D9DA6" stroke-width="10" stroke-linecap="round"/>
  <path d="M176 208H408" stroke="#8D9DA6" stroke-width="10" stroke-linecap="round"/>
  <path d="M176 248H352" stroke="#8D9DA6" stroke-width="10" stroke-linecap="round"/>
  <path d="M480 132C480 155.196 463.196 176 440 176C416.804 176 400 155.196 400 132C400 98 440 64 440 64C440 64 480 98 480 132Z" fill="#2E6E71" fill-opacity="0.2"/>
  <path d="M450 140C450 148.837 445.523 156 440 156C434.477 156 430 148.837 430 140C430 127 440 114 440 114C440 114 450 127 450 140Z" fill="#2E6E71"/>
</svg>
